<svg xmlns="http://www.w3.org/2000/svg" xmlns:xlink="http://www.w3.org/1999/xlink" version="1.1" x="0px" y="0px" viewBox="0 0 100 125" enable-background="new 0 0 100 100" xml:space="preserve"><g><polygon points="25.092,66.229 20.892,62.025 17.562,65.35 25.092,72.87 34.241,63.726 30.916,60.413  "/><path d="M53.246,12.218L16.489,28.767v24.271C12.564,55.939,10,60.574,10,65.811c0,8.75,7.138,15.872,15.898,15.872   c3.096,0,5.975-0.898,8.418-2.428l18.93,8.527L90,71.223V28.767L53.246,12.218z M25.898,76.981c-6.17,0-11.188-5.014-11.188-11.171   c0-6.162,5.018-11.178,11.188-11.178c6.177,0,11.195,5.016,11.195,11.178C37.093,71.968,32.076,76.981,25.898,76.981z    M53.246,40.172L27.933,28.767l25.313-11.394l25.312,11.394L53.246,40.172z"/></g><text x="0" y="115" fill="#000000" font-size="5px" font-weight="bold" font-family="'Helvetica Neue', Helvetica, Arial-Unicode, Arial, Sans-serif">Created by Dmitry Orlov</text><text x="0" y="120" fill="#000000" font-size="5px" font-weight="bold" font-family="'Helvetica Neue', Helvetica, Arial-Unicode, Arial, Sans-serif">from the Noun Project</text></svg>